<svg width="93" height="96" viewBox="0 0 93 96" fill="none" xmlns="http://www.w3.org/2000/svg"><g filter="url(#filter0_d_3386_8148)"><rect x="20" y="16" width="53" height="56" rx="26.5" fill="url(#paint0_linear_3386_8148)" shape-rendering="crispEdges"/><path d="M55.3512 40.6689V36.5032C55.3512 31.6252 51.3853 27.6523 46.5004 27.6523C41.6155 27.6523 37.6496 31.6252 37.6496 36.5032V40.6689C35.6072 40.841 34 42.5639 34 44.648V49.6139C34 54.464 36.993 58.6267 41.2297 60.3481C40.32 59.6583 39.57 58.818 38.9798 57.8289C38.1411 56.4277 37.7229 54.8313 37.7229 53.042C37.7229 51.2527 38.1411 49.6308 38.9798 48.2389C39.817 46.847 40.9766 45.7552 42.4596 44.962C43.9426 44.1704 45.6339 43.7745 47.5351 43.7745C49.2997 43.7745 50.856 44.1295 52.2039 44.8439C53.5503 45.5561 54.5742 46.6039 55.2763 47.9843L52.0172 49.8855C51.474 49.0259 50.812 48.3917 50.0304 47.9843C49.4509 47.6826 48.8383 47.4912 48.1894 47.4149C47.9641 47.3871 47.7349 47.3724 47.5019 47.3724C46.4603 47.3724 45.5212 47.5993 44.6841 48.0522C44.5043 48.1494 44.3338 48.2551 44.1702 48.3716C43.573 48.7937 43.0885 49.3369 42.715 50.0035C42.2397 50.8523 42.0013 51.8661 42.0013 53.042C42.0013 54.2179 42.2397 55.2317 42.715 56.082C43.1903 56.9308 43.8469 57.5812 44.6841 58.0334C45.5212 58.4863 46.4603 58.7131 47.5019 58.7131C48.407 58.7131 49.2503 58.5086 50.0311 58.1013C50.8128 57.6939 51.4748 57.0596 52.018 56.2001L55.2771 58.1013C55.2725 58.1113 55.2671 58.1205 55.2609 58.1306C57.5595 56.0134 59 52.9787 59 49.6139V44.648C59 42.5632 57.3928 40.841 55.352 40.6689H55.3512ZM51.5195 40.6527H41.4797V36.5032C41.7552 29.8521 51.2456 29.8537 51.5195 36.5032V40.6527Z" fill="#FDD503"/></g><defs><filter id="filter0_d_3386_8148" x="0" y="0" width="93" height="96" filterUnits="userSpaceOnUse" color-interpolation-filters="sRGB"><feFlood flood-opacity="0" result="BackgroundImageFix"/><feColorMatrix in="SourceAlpha" type="matrix" values="0 0 0 0 0 0 0 0 0 0 0 0 0 0 0 0 0 0 127 0" result="hardAlpha"/><feOffset dy="4"/><feGaussianBlur stdDeviation="10"/><feComposite in2="hardAlpha" operator="out"/><feColorMatrix type="matrix" values="0 0 0 0 0 0 0 0 0 0.380392 0 0 0 0 1 0 0 0 0.15 0"/><feBlend mode="normal" in2="BackgroundImageFix" result="effect1_dropShadow_3386_8148"/><feBlend mode="normal" in="SourceGraphic" in2="effect1_dropShadow_3386_8148" result="shape"/></filter><linearGradient id="paint0_linear_3386_8148" x1="46.5" y1="16" x2="46.5" y2="72" gradientUnits="userSpaceOnUse"><stop stop-color="#2B3990"/><stop offset="1" stop-color="#0024B5"/></linearGradient></defs></svg>