<svg width="16" height="10" viewBox="0 0 16 10" fill="none" xmlns="http://www.w3.org/2000/svg">
      <path d="M7.9974 0C4.66406 0 1.8174 2.07333 0.664062 5C1.8174 7.92667 4.66406 10 7.9974 10C11.3307 10 14.1774 7.92667 15.3307 5C14.1774 2.07333 11.3307 0 7.9974 0ZM7.9974 8.33333C6.1574 8.33333 4.66406 6.84 4.66406 5C4.66406 3.16 6.1574 1.66667 7.9974 1.66667C9.8374 1.66667 11.3307 3.16 11.3307 5C11.3307 6.84 9.8374 8.33333 7.9974 8.33333ZM7.9974 3C6.89073 3 5.9974 3.89333 5.9974 5C5.9974 6.10667 6.89073 7 7.9974 7C9.10406 7 9.9974 6.10667 9.9974 5C9.9974 3.89333 9.10406 3 7.9974 3Z" fill="#79767D" />
    </svg>